<?xml version="1.0" encoding="UTF-8"?>
<svg version="1.1" viewBox="0 0 2048 2048" width="1280" height="1280" xmlns="http://www.w3.org/2000/svg">
<path transform="translate(643,313)" d="m0 0 7 6 133 133v439h64l264 264v2h-328v439l-139 139-7-6-133-133v-1144z" fill="#ffd700"/>
<path transform="translate(1404,313)" d="m0 0 7 6 133 133v1144l-139 139-7-6-131-131v-441h-66l-264-264v-2h330v-441z" fill="#fff"/>
<path transform="translate(1405,315)" d="m0 0 4 2 84 84 3 5 13 13 1 3h-2v2l-99 1-3 1v12h-1z" fill="#0A8F86"/>
<path transform="translate(1403,1610)" d="m0 0h1v123l-4-2-83-83-3-5-8-8-7-8 2-1v-2l99-1 3-1z" fill="#0A8F86"/>
</svg>
